<svg width="602" height="602" viewBox="0 0 602 602" fill="none" xmlns="http://www.w3.org/2000/svg">
<path d="M1 601H601V1H1V601ZM484 538C477.58 542.97 470.62 547.5 464 552C453.46 559.16 442.39 565.31 431 571C428.22 572.39 424.98 573.64 422 575C338.55 613.15 239.64 606.21 159 565C153.93 562.41 148.92 559.83 144 557C140.58 555.03 138 552.14 135 550C129.92 546.37 112.47 539.91 118.3 532.3C124.14 524.69 131.97 519.91 139.7 514.7C147.42 509.48 157.74 504.76 167 503C168.21 491.87 175.07 479.53 178.31 469.31C181.54 459.08 194.84 448.8 186.75 440.25C178.66 431.7 172.54 424.54 166.25 414.75C159.95 404.97 155.45 395.02 151.02 383.98C146.6 372.93 142.71 360.52 140.67 348.33C138.63 336.14 136.97 318.29 139 306C141.02 293.71 144.66 282.28 151.31 272.31C157.95 262.33 165.66 256.67 175.08 250.08C184.51 243.5 197.37 238.84 209 238C206.62 223.98 204.31 209.77 201.02 195.98C197.74 182.18 197.11 167.53 193.02 153.98C188.94 140.43 190.8 123.68 185.22 110.78C179.65 97.88 184.15 80.66 200 82C215.86 83.34 214.67 99.19 224.75 107.25C234.83 115.3 238.74 126.49 248 135C249.83 127.92 254.84 117.22 264 118C273.16 118.78 278.05 127.55 281 135C288.2 121.68 288.78 101.49 294.33 87.33C299.87 73.17 295.96 48.71 316 47C336.04 45.3 335.08 70.35 339 85C342.92 99.65 347.64 119.66 351 135C356.64 128.91 358.92 120.73 368.22 118.22C377.53 115.72 385.24 126.35 387 134C396.04 127.07 399.19 117.4 407.77 109.77C416.35 102.14 419.21 92.37 427.7 84.7C436.18 77.02 456.65 87.25 452 100C447.35 112.75 445.55 123.58 444.02 137.02C442.5 150.47 440.31 163.03 438.22 176.22C436.14 189.41 435.16 202.88 433 216C430.85 229.12 429.11 242.06 427.22 255.22C425.33 268.39 423.02 281.63 422 295C434.12 300.14 444.07 307.41 455.23 314.77C466.39 322.13 473.92 329.19 483.25 339.75C492.58 350.31 496.96 364.29 497 379C497.04 393.71 482.47 403.19 488.92 416.08C495.38 428.96 498.68 441.12 502.93 455.07C507.18 469.03 509.63 486.06 511 501C514.15 500.96 515.3 505.02 518 506C509.03 518.34 496.24 529.12 484 538ZM260 72C273.56 76.12 266.1 99.17 252.33 93.67C238.56 88.17 246.33 67.85 260 72ZM382 72C395.82 75.42 388.17 99.64 374.33 93.67C360.49 87.7 368.38 68.63 382 72ZM139 139C147.26 140.81 148.4 152.71 155.75 157.25C163.1 161.79 164.19 171.45 172.3 176.7C180.42 181.94 171.38 198.56 162.33 194.67C153.28 190.78 152.61 182.38 145.25 176.75C137.89 171.12 136.52 162.97 128.75 157.25C120.98 151.53 129.62 136.95 139 139ZM501 140C510.39 142.52 511.75 155.46 504.25 160.25C496.74 165.03 494.07 173.28 487.25 178.25C480.43 183.21 477.33 195.86 467 194C456.66 192.14 456.61 178.68 463.75 173.75C470.9 168.82 473.91 160.24 480.75 155.75C487.59 151.27 491.17 137.36 501 140ZM472 270C488.84 273.49 482.45 301.96 464.93 297.07C447.41 292.18 453.91 266.25 472 270ZM109 298C122.03 302.12 114.18 325.48 100.33 319.67C86.48 313.86 94.61 293.45 109 298ZM536 298C549.18 302 542.04 324.74 528.33 319.67C514.62 314.6 521.37 293.56 536 298ZM103 376C117.5 380.58 109.82 406.88 93.93 401.07C78.03 395.26 85.87 370.59 103 376ZM545 376C559.71 380.47 551.74 406.39 536.33 400.67C520.92 394.95 528.73 371.06 545 376ZM105 430C121.38 434.97 111.1 463.65 94.93 456.07C78.75 448.49 88.14 424.88 105 430ZM540 430C556.91 431.42 554.63 459.81 537 458C519.37 456.19 522.44 428.52 540 430Z" stroke="#FEFEFE" stroke-width="0.3"/>
<path d="M484 538C489.49 527.6 485.11 509.61 486 498C486.89 486.39 481.63 474.04 479.93 463.07C478.22 452.11 472.22 442.43 468.78 432.22C465.33 422.02 457.16 414.02 457 403C458.8 394.49 471.93 389.3 472.07 379.07C472.22 368.85 468.51 360.24 461.25 352.75C453.99 345.26 448.17 340.5 440.25 334.75C432.33 329.01 424.86 324.2 416.25 319.75C407.63 315.3 399.29 309.88 390 307C400.98 282.13 382.73 254.29 357.22 250.78C331.72 247.27 306.66 270.27 311 297C309.1 303.35 298.23 306.6 292.75 302.25C287.27 297.9 285.85 288.08 287 281C288.65 277.19 290.32 272.42 291 268C265.32 262.14 233.16 256.79 207.02 261.02C180.89 265.26 166.22 286.72 163 311C166.49 306.82 171.03 305.87 176 305C207.68 299.43 243.38 315.32 271.77 325.23C300.16 335.14 325.59 347.1 351 363C360.69 368.09 371.35 375.6 381.98 379.02C392.6 382.45 410.41 388.95 418 379C401.6 385.96 391.02 361.87 403.92 353.92C416.83 345.98 431.49 352.94 439.25 363.75C447 374.57 444.88 390.86 435 400C428.63 405.89 419.54 408.83 411 409C407.69 409.07 404.31 409.13 401 409C361.92 407.51 332.96 377.85 297.68 364.32C262.4 350.8 224.01 331.49 185 330C182.72 329.67 178.35 327.55 176 330C164.95 333.99 161.49 342.89 165.07 352.93C168.65 362.97 170.6 371.14 175.08 379.92C179.55 388.71 183.43 396.68 188.75 404.25C194.06 411.83 198.97 418.46 205.25 424.75C211.54 431.03 221.03 435.67 222 445C221.68 448.17 222.85 453.75 218.22 454.22C213.59 454.69 213.22 455.86 211 459C193.28 484.05 185.18 516.17 184 547C184 547 183.26 546.75 183 547C179.5 550.38 182.27 564.92 183 569C183.1 570.74 182.8 571.83 184 573C184 573 183.75 573.74 184 574C186.32 576.4 194.52 575 198 575C201.67 575 216.03 576.93 218 574C221.58 568.67 214.03 562.43 214.32 555.68C214.62 548.92 210.87 546.47 210.78 537.22C210.69 527.97 202.85 508.56 215 503C232.04 495.21 234.72 517.15 236 528C237.56 541.22 238.28 560.43 245 572C245 573 245 574 245 575C251.97 574.94 260.15 575.08 267 575C273.85 574.92 281.52 575.16 288 575C294.48 574.84 304.28 575.34 310 575C315.72 574.66 327.31 576.68 327 573C326.12 562.43 314.79 557.6 306.08 556.92C297.36 556.25 294.12 538.02 303.31 534.31C312.5 530.59 328.34 534.59 337.93 532.93C347.52 531.27 356.55 528.05 364.3 523.31C372.06 518.56 378.04 513.93 383.75 506.75C389.46 499.57 394.37 493.05 397.02 484.03C399.68 475 410.58 468.47 418.25 476.75C425.92 485.03 418.97 494.48 415.77 502.77C412.57 511.06 407.28 518.24 402.25 525.25C397.23 532.27 390.92 538.22 383.75 542.75C376.57 547.27 368.23 552.64 360 555C355.53 555.27 351.69 557.7 347 557C347.81 563.87 354.18 568.46 356 575C377.62 572.54 400.5 578.28 422 575C338.55 613.15 239.64 606.21 159 565C159 565 159 564.5 159 564C161.66 560.39 160 550.78 160 546C160 546 160 545.5 160 545C159.26 540.05 161.39 535.84 161 531C156.93 532.26 148.81 536.02 146.23 539.23C143.65 542.44 134.86 545.71 135 550C129.92 546.37 112.47 539.91 118.3 532.3C124.14 524.69 131.97 519.91 139.7 514.7C147.42 509.48 157.74 504.76 167 503C168.21 491.87 175.07 479.53 178.31 469.31C181.54 459.08 194.84 448.8 186.75 440.25C178.66 431.7 172.54 424.54 166.25 414.75C159.95 404.97 155.45 395.02 151.02 383.98C146.6 372.93 142.71 360.52 140.67 348.33C138.63 336.14 136.97 318.29 139 306C141.02 293.71 144.66 282.28 151.31 272.31C157.95 262.33 165.66 256.67 175.08 250.08C184.51 243.5 197.37 238.84 209 238C206.62 223.98 204.31 209.77 201.02 195.98C197.74 182.18 197.11 167.53 193.02 153.98C188.94 140.43 190.8 123.68 185.22 110.78C179.65 97.8802 184.15 80.6602 200 82.0002C215.86 83.3402 214.67 99.1902 224.75 107.25C234.83 115.3 238.74 126.49 248 135C249.83 127.92 254.84 117.22 264 118C273.16 118.78 278.05 127.55 281 135C288.2 121.68 288.78 101.49 294.33 87.3302C299.87 73.1702 295.96 48.7102 316 47.0002C336.04 45.3002 335.08 70.3502 339 85.0002C342.92 99.6502 347.64 119.66 351 135C356.64 128.91 358.92 120.73 368.22 118.22C377.53 115.72 385.24 126.35 387 134C396.04 127.07 399.19 117.4 407.77 109.77C416.35 102.14 419.21 92.3702 427.7 84.7002C436.18 77.0202 456.65 87.2502 452 100C447.35 112.75 445.55 123.58 444.02 137.02C442.5 150.47 440.31 163.03 438.22 176.22C436.14 189.41 435.16 202.88 433 216C430.85 229.12 429.11 242.06 427.22 255.22C425.33 268.39 423.02 281.63 422 295C434.12 300.14 444.07 307.41 455.23 314.77C466.39 322.13 473.92 329.19 483.25 339.75C492.58 350.31 496.96 364.29 497 379C497.04 393.71 482.47 403.19 488.92 416.08C495.38 428.96 498.68 441.12 502.93 455.07C507.18 469.03 509.63 486.06 511 501M336 175C340.82 184.65 349.36 177.29 352.92 170.92C356.47 164.54 362.19 158.96 366 153C370.15 159.88 364.87 172.48 373.25 177.75C381.63 183.03 387.88 172.16 392.75 166.75C397.63 161.35 402.12 154.65 406.77 148.77C411.42 142.89 416.93 136.36 421 130C419.93 149.74 414.75 171.5 412 192C411.38 192.91 411.15 192.86 410 193C402.64 196 393.47 193.35 385 194C376.53 194.65 366.69 193.74 358 194C349.31 194.26 339.71 193.95 331 194C322.29 194.05 312.54 194.14 304 194C295.46 193.86 285.05 194.41 277 194C268.95 193.59 256.94 194.96 250 194C243.06 193.04 227.88 196.64 226 193C225.41 191.86 225.31 191.24 225 190C220.25 170.86 217.75 151.16 213 132C218.87 136.62 223.14 143.66 227.92 149.08C232.7 154.51 238.17 162.16 242.92 167.08C247.67 172.01 252.97 183.84 261.22 179.22C269.47 174.6 263.4 159.28 268 153C276.12 161.96 275.35 167 285.25 175.75C295.14 184.5 300.8 169.12 301.93 158.93C303.05 148.74 307.06 136.33 309 126C310.93 115.66 314.49 104.5 318 95.0002C323.31 121.82 330.28 148.26 336 175ZM408 217C410.47 220.76 404.35 230.06 405.02 235.02C405.7 239.99 403.65 249.58 402 254C394.55 244.11 388.12 237.42 376.77 231.23C365.42 225.04 347.87 225.46 335.33 228.33C322.79 231.19 314.24 244.28 302 242C292.06 241.04 283.89 239.62 273.93 239.07C263.97 238.52 254.27 236.51 244 237C233.73 237.49 229.17 228.69 231 218C231.68 214.06 242.64 216.44 249 216C255.36 215.56 264.96 216.18 272 216C279.04 215.82 287.71 216.04 295 216C302.29 215.96 310.71 215.92 318 216C325.29 216.08 332.86 215.73 340 216C347.14 216.27 356.23 215.4 363 216C369.77 216.6 380.2 214.67 386 216C391.8 217.33 405.1 212.58 408 217Z" stroke="#191E1C" stroke-width="0.3"/>
<path d="M260 72C246.33 67.85 238.56 88.17 252.33 93.67C266.1 99.17 273.56 76.12 260 72Z" stroke="#171B16" stroke-width="0.3"/>
<path d="M382 72.0002C368.38 68.6302 360.49 87.7002 374.33 93.6702C388.17 99.6402 395.82 75.4202 382 72.0002Z" stroke="#171C16" stroke-width="0.3"/>
<path d="M225 190C229.17 196.08 243.22 190.57 251 192C258.78 193.43 271.32 191.22 280 192C288.68 192.78 298.91 191.4 308 192C317.09 192.6 327.8 191.17 337 192C336.31 186.29 336.6 180.81 336 175C330.28 148.26 323.31 121.82 318 95C314.49 104.5 310.93 115.66 309 126C307.06 136.33 303.05 148.74 301.93 158.93C300.8 169.12 295.14 184.5 285.25 175.75C275.35 167 276.12 161.96 268 153C263.4 159.28 269.47 174.6 261.22 179.22C252.97 183.84 247.67 172.01 242.92 167.08C238.17 162.16 232.7 154.51 227.92 149.08C223.14 143.66 218.87 136.62 213 132C217.75 151.16 220.25 170.86 225 190Z" stroke="#F0B625" stroke-width="0.3"/>
<path d="M336 175C336.6 180.81 336.31 186.29 337 192C344.77 191.3 343.22 191.98 352 192C360.78 192.02 373.32 191.88 382 192C390.68 192.12 391.16 190.74 397 192C402.84 193.26 408.45 188.77 412 192C414.75 171.5 419.93 149.74 421 130C416.93 136.36 411.42 142.89 406.77 148.77C402.12 154.65 397.63 161.35 392.75 166.75C387.88 172.16 381.63 183.03 373.25 177.75C364.87 172.48 370.15 159.88 366 153C362.19 158.96 356.47 164.54 352.92 170.92C349.36 177.29 340.82 184.65 336 175Z" stroke="#C28920" stroke-width="0.3"/>
<path d="M139 139C129.62 136.95 120.98 151.53 128.75 157.25C136.52 162.97 137.89 171.12 145.25 176.75C152.61 182.38 153.28 190.78 162.33 194.67C171.38 198.56 180.42 181.94 172.3 176.7C164.19 171.45 163.1 161.79 155.75 157.25C148.4 152.71 147.26 140.81 139 139Z" stroke="#191E18" stroke-width="0.3"/>
<path d="M501 140C491.17 137.36 487.59 151.27 480.75 155.75C473.91 160.24 470.9 168.82 463.75 173.75C456.61 178.68 456.66 192.14 467 194C477.33 195.86 480.43 183.21 487.25 178.25C494.07 173.28 496.74 165.03 504.25 160.25C511.75 155.46 510.39 142.52 501 140Z" stroke="#181D17" stroke-width="0.3"/>
<path d="M226 193C231.18 196.35 241.63 191.49 248 193C254.37 194.51 263.08 192.33 270 193C276.92 193.67 284.81 192.71 292 193C299.19 193.29 306.63 192.9 314 193C321.37 193.1 329.55 193 337 193C336.96 193 337 192 337 192C327.8 191.17 317.09 192.6 308 192C298.91 191.4 288.68 192.78 280 192C271.32 191.22 258.78 193.43 251 192C243.22 190.57 229.17 196.08 225 190C225.31 191.24 225.41 191.86 226 193Z" stroke="#88731B" stroke-width="0.3"/>
<path d="M337 193C360.72 193 386.48 195.9 410 193C411.15 192.86 411.38 192.91 412 192C408.45 188.77 402.84 193.26 397 192C391.16 190.74 390.68 192.12 382 192C373.32 191.88 360.78 192.02 352 192C343.22 191.98 344.77 191.3 337 192C337 192 336.96 193 337 193Z" stroke="#87621B" stroke-width="0.3"/>
<path d="M410 193C386.48 195.9 360.72 193 337 193C329.55 193 321.37 193.1 314 193C306.63 192.9 299.19 193.29 292 193C284.81 192.71 276.92 193.67 270 193C263.08 192.33 254.37 194.51 248 193C241.63 191.49 231.18 196.35 226 193C227.88 196.64 243.06 193.04 250 194C256.94 194.96 268.95 193.59 277 194C285.05 194.41 295.46 193.86 304 194C312.54 194.14 322.29 194.05 331 194C339.71 193.95 349.31 194.26 358 194C366.69 193.74 376.53 194.65 385 194C393.47 193.35 402.64 196 410 193Z" stroke="#000514" stroke-width="0.3"/>
<path d="M231 218C233.78 213.85 245.61 218.21 251 217C256.39 215.79 265.71 217.54 272 217C278.29 216.46 286.28 217.23 293 217C299.72 216.77 307.03 217.08 314 217C320.97 216.92 328.94 217 336 217C360 217 384 217 408 217C405.1 212.58 391.8 217.33 386 216C380.2 214.67 369.77 216.6 363 216C356.23 215.4 347.14 216.27 340 216C332.86 215.73 325.29 216.08 318 216C310.71 215.92 302.29 215.96 295 216C287.71 216.04 279.04 215.82 272 216C264.96 216.18 255.36 215.56 249 216C242.64 216.44 231.68 214.06 231 218Z" stroke="#333012" stroke-width="0.3"/>
<path d="M231 218C229.17 228.69 233.73 237.49 244 237C254.27 236.51 263.97 238.52 273.93 239.07C283.89 239.62 292.06 241.04 302 242C315.09 239.79 323.5 220.8 336 217C328.94 217 320.97 216.92 314 217C307.03 217.08 299.72 216.77 293 217C286.28 217.23 278.29 216.46 272 217C265.71 217.54 256.39 215.79 251 217C245.61 218.21 233.78 213.85 231 218Z" stroke="#F0B624" stroke-width="0.3"/>
<path d="M302 242C314.24 244.28 322.79 231.19 335.33 228.33C347.87 225.46 365.42 225.04 376.77 231.23C388.12 237.42 394.55 244.11 402 254C403.65 249.58 405.7 239.99 405.02 235.02C404.35 230.06 410.47 220.76 408 217C384 217 360 217 336 217C323.5 220.8 315.09 239.79 302 242Z" stroke="#C28921" stroke-width="0.3"/>
<path d="M311 297C311.86 302.3 314.95 309.32 318 314C336.1 341.78 377.35 335.64 390 307C400.98 282.13 382.73 254.29 357.22 250.78C331.72 247.27 306.66 270.27 311 297ZM356 269C383.53 273.93 376.24 317.96 348 313C319.76 308.04 328.52 264.08 356 269Z" stroke="#F9FAF8" stroke-width="0.3"/>
<path d="M176 305C177.54 297.17 177.65 299.45 181.31 291.31C184.96 283.16 194.95 276.31 203.02 274.02C211.1 271.74 211.99 271.18 219.07 270.07C226.15 268.97 231.87 270.84 238.01 270.99C244.15 271.15 248.84 273.39 254.22 273.78C259.61 274.16 266.45 276.69 271.07 276.93C275.69 277.17 283.36 282.69 287 281C288.65 277.19 290.32 272.42 291 268C265.32 262.14 233.16 256.79 207.02 261.02C180.89 265.26 166.22 286.72 163 311C166.49 306.82 171.03 305.87 176 305Z" stroke="#DEED7B" stroke-width="0.3"/>
<path d="M356 269C328.52 264.08 319.76 308.04 348 313C376.24 317.96 383.53 273.93 356 269Z" stroke="#1C1E1D" stroke-width="0.3"/>
<path d="M176 305C207.68 299.43 243.38 315.32 271.77 325.23C300.16 335.14 325.59 347.1 351 363C347.84 360.09 341.27 353.47 337 349C348.21 352.1 361.51 354.87 373 352C351.83 347.99 323.92 335.81 318 314C314.95 309.32 311.86 302.3 311 297C309.1 303.35 298.23 306.6 292.75 302.25C287.27 297.9 285.85 288.08 287 281C283.36 282.69 275.69 277.17 271.07 276.93C266.45 276.69 259.61 274.16 254.22 273.78C248.84 273.39 244.15 271.15 238.01 270.99C231.87 270.84 226.15 268.97 219.07 270.07C211.99 271.18 211.1 271.74 203.02 274.02C194.95 276.31 184.96 283.16 181.31 291.31C177.65 299.45 177.54 297.17 176 305ZM233 288C228.62 290.21 215.31 290.18 211 288C198.38 281.62 215.05 271.66 222 272C228.95 272.34 245.12 281.88 233 288Z" stroke="#97B611" stroke-width="0.3"/>
<path d="M472 270C453.91 266.25 447.41 292.18 464.93 297.07C482.45 301.96 488.84 273.49 472 270Z" stroke="#191D18" stroke-width="0.3"/>
<path d="M211 288C215.17 289.37 228.83 289.37 233 288C245.12 281.88 228.95 272.34 222 272C215.05 271.66 198.38 281.62 211 288Z" stroke="#1C1E1C" stroke-width="0.3"/>
<path d="M233 288C228.83 289.37 215.17 289.37 211 288C215.31 290.18 228.62 290.21 233 288Z" stroke="#5A681B" stroke-width="0.3"/>
<path d="M109 298C94.6104 293.45 86.4804 313.86 100.33 319.67C114.18 325.48 122.03 302.12 109 298Z" stroke="#181C17" stroke-width="0.3"/>
<path d="M536 298C521.37 293.56 514.62 314.6 528.33 319.67C542.04 324.74 549.18 302 536 298Z" stroke="#171C16" stroke-width="0.3"/>
<path d="M318 314C323.92 335.81 351.83 347.99 373 352C361.51 354.87 348.21 352.1 337 349C341.27 353.47 347.84 360.09 351 363C360.69 368.09 371.35 375.6 381.98 379.02C392.6 382.45 410.41 388.95 418 379C401.6 385.96 391.02 361.87 403.92 353.92C416.83 345.98 431.49 352.94 439.25 363.75C447 374.57 444.88 390.86 435 400C416.88 428 376.38 420.15 348.98 409.02C321.57 397.9 298.32 381.32 269.78 371.22C241.23 361.12 208.59 345.8 176 348C177.47 366.54 189.33 383.69 195.77 400.23C202.21 416.77 223.78 427.42 222 445C221.68 448.17 222.85 453.75 218.22 454.22C213.59 454.69 213.22 455.86 211 459C206.93 468.62 203.72 482.83 201 494C207.17 493.56 211.65 498.63 215 503C232.04 495.21 234.72 517.15 236 528C239.64 534.59 248.52 539.3 253.75 545.25C258.99 551.19 266.71 557.21 273.23 561.77C279.75 566.33 289.37 572.42 297 574C306.83 574 317.99 574.83 327 573C326.12 562.43 314.79 557.6 306.08 556.92C297.36 556.25 294.12 538.02 303.31 534.31C312.5 530.59 328.34 534.59 337.93 532.93C347.52 531.27 356.55 528.05 364.3 523.31C372.06 518.56 378.04 513.93 383.75 506.75C389.46 499.57 394.37 493.05 397.02 484.03C399.68 475 410.58 468.47 418.25 476.75C425.92 485.03 418.97 494.48 415.77 502.77C412.57 511.06 407.28 518.24 402.25 525.25C397.23 532.27 390.92 538.22 383.75 542.75C376.57 547.27 368.23 552.64 360 555C367.31 555.95 379.66 562.39 387.68 557.68C395.7 552.97 402.45 551.27 408.7 544.7C414.94 538.12 417.87 533.07 421.92 524.92C425.98 516.78 426.81 506.6 428.33 497.33C429.85 488.06 427.65 475.13 429.99 465.99C432.34 456.85 437.53 450.22 438.78 440.78C440.02 431.34 442.26 422.41 443.93 412.93C445.59 403.44 445.86 392.44 448 383C450.84 387.71 450.03 397.78 458 398C458.62 399.94 456.8 401.13 457 403C458.8 394.49 471.93 389.3 472.07 379.07C472.22 368.85 468.51 360.24 461.25 352.75C453.99 345.26 448.17 340.5 440.25 334.75C432.33 329.01 424.86 324.2 416.25 319.75C407.63 315.3 399.29 309.88 390 307C377.35 335.64 336.1 341.78 318 314ZM236 370C246.43 372.43 247.62 390.54 254.77 398.23C261.92 405.92 265.91 417.19 275.25 424.75C284.59 432.31 291.01 439.55 302.23 445.77C313.45 451.99 321.98 454.95 335.68 459.32C349.38 463.7 341.21 488.64 327.33 483.67C313.45 478.7 304.88 476.96 293.31 470.7C281.73 464.43 275.51 458.93 265.92 451.08C256.33 443.24 250.54 435.02 243.08 425.92C235.63 416.81 232.02 406.39 225.23 396.77C218.44 387.15 217.96 365.8 236 370Z" stroke="#768109" stroke-width="0.3"/>
<path d="M176 330C176.44 329.84 177 330 177 330C179.66 330 182.34 329.9 185 330C182.72 329.67 178.35 327.55 176 330Z" stroke="#455317" stroke-width="0.3"/>
<path d="M222 445C223.78 427.42 202.21 416.77 195.77 400.23C189.33 383.69 177.47 366.54 176 348C175.6 342.92 174.73 334.46 177 330C177 330 176.44 329.84 176 330C164.95 333.99 161.49 342.89 165.07 352.93C168.65 362.97 170.6 371.14 175.08 379.92C179.55 388.71 183.43 396.68 188.75 404.25C194.06 411.83 198.97 418.46 205.25 424.75C211.54 431.03 221.03 435.67 222 445Z" stroke="#DCEB7B" stroke-width="0.3"/>
<path d="M176 348C208.59 345.8 241.23 361.12 269.78 371.22C298.32 381.32 321.57 397.9 348.98 409.02C376.38 420.15 416.88 428 435 400C428.63 405.89 419.54 408.83 411 409C407.68 409.4 404.28 409.47 401 409C361.92 407.51 332.96 377.85 297.68 364.32C262.4 350.8 224.01 331.49 185 330C182.34 329.9 179.66 330 177 330C174.73 334.46 175.6 342.92 176 348Z" stroke="#98B619" stroke-width="0.3"/>
<path d="M236 370C217.96 365.8 218.44 387.15 225.23 396.77C232.02 406.39 235.63 416.81 243.08 425.92C250.54 435.02 256.33 443.24 265.92 451.08C275.51 458.93 281.73 464.43 293.31 470.7C304.88 476.96 313.45 478.7 327.33 483.67C341.21 488.64 349.38 463.7 335.68 459.32C321.98 454.95 313.45 451.99 302.23 445.77C291.01 439.55 284.59 432.31 275.25 424.75C265.91 417.19 261.92 405.92 254.77 398.23C247.62 390.54 246.43 372.43 236 370Z" stroke="#1E1F1D" stroke-width="0.3"/>
<path d="M103 376C85.8698 370.59 78.0298 395.26 93.9298 401.07C109.82 406.88 117.5 380.58 103 376Z" stroke="#181D17" stroke-width="0.3"/>
<path d="M545 376C528.73 371.06 520.92 394.95 536.33 400.67C551.74 406.39 559.71 380.47 545 376Z" stroke="#181C17" stroke-width="0.3"/>
<path d="M360 555C355.53 555.27 351.69 557.7 347 557C347.81 563.87 354.18 568.46 356 575C377.62 572.54 400.5 578.28 422 575C424.98 573.64 428.22 572.39 431 571C439.43 562.15 437.39 550.19 441.99 538.99C446.6 527.8 442.73 510.49 445 498C447.27 485.51 437.98 470.04 446.75 459.75C455.53 449.47 469.8 461.11 468.78 473.22C467.76 485.33 473.58 501.82 470.07 514.07C466.56 526.33 470.7 540.94 464 552C470.62 547.5 477.58 542.97 484 538C489.49 527.6 485.11 509.61 486 498C486.89 486.39 481.63 474.04 479.93 463.07C478.22 452.11 472.22 442.43 468.78 432.22C465.33 422.02 457.16 414.02 457 403C456.8 401.13 458.62 399.94 458 398C450.03 397.78 450.84 387.71 448 383C445.86 392.44 445.59 403.44 443.93 412.93C442.26 422.41 440.02 431.34 438.78 440.78C437.53 450.22 432.34 456.85 429.99 465.99C427.65 475.13 429.85 488.06 428.33 497.33C426.81 506.6 425.98 516.78 421.92 524.92C417.87 533.07 414.94 538.12 408.7 544.7C402.45 551.27 395.7 552.97 387.68 557.68C379.66 562.39 367.31 555.95 360 555Z" stroke="#65700C" stroke-width="0.3"/>
<path d="M411 409C407.69 409.07 404.31 409.13 401 409C404.28 409.47 407.68 409.4 411 409Z" stroke="#5B692C" stroke-width="0.3"/>
<path d="M105 430C88.1395 424.88 78.7495 448.49 94.9295 456.07C111.1 463.65 121.38 434.97 105 430Z" stroke="#181D17" stroke-width="0.3"/>
<path d="M540 430C522.44 428.52 519.37 456.19 537 458C554.63 459.81 556.91 431.42 540 430Z" stroke="#191D17" stroke-width="0.3"/>
<path d="M431 571C442.39 565.31 453.46 559.16 464 552C470.7 540.94 466.56 526.33 470.07 514.07C473.58 501.82 467.76 485.33 468.78 473.22C469.8 461.11 455.53 449.47 446.75 459.75C437.98 470.04 447.27 485.51 445 498C442.73 510.49 446.6 527.8 441.99 538.99C437.39 550.19 439.43 562.15 431 571Z" stroke="#191F1C" stroke-width="0.3"/>
<path d="M184 547C183.67 555.64 184 564.36 184 573C184 573 183.75 573.74 184 574C188.63 574.42 193.36 573.69 198 574C195.94 547.49 196.23 519.63 201 494C203.72 482.83 206.93 468.62 211 459C193.28 484.05 185.18 516.17 184 547Z" stroke="#A0BA19" stroke-width="0.3"/>
<path d="M184 574C186.32 576.4 194.52 575 198 575C203.92 574.43 211.37 573.35 218 574C221.58 568.67 214.03 562.43 214.32 555.68C214.62 548.92 210.87 546.47 210.78 537.22C210.69 527.97 202.85 508.56 215 503C211.65 498.63 207.17 493.56 201 494C196.23 519.63 195.94 547.49 198 574C193.36 573.69 188.63 574.42 184 574Z" stroke="#656D0B" stroke-width="0.3"/>
<path d="M245 572C249.53 577.4 262.61 573.07 270 574C277.39 574.93 289.21 574 297 574C289.37 572.42 279.75 566.33 273.23 561.77C266.71 557.21 258.99 551.19 253.75 545.25C248.52 539.3 239.64 534.59 236 528C237.56 541.22 238.28 560.43 245 572Z" stroke="#656E0B" stroke-width="0.3"/>
<path d="M135 550C138 552.14 140.58 555.03 144 557C148.18 551.64 154.25 548.24 160 545C159.26 540.05 161.39 535.84 161 531C156.93 532.26 148.81 536.02 146.23 539.23C143.65 542.44 134.86 545.71 135 550Z" stroke="#CADB77" stroke-width="0.3"/>
<path d="M144 557C148.92 559.83 153.93 562.41 159 565C159 565 159 564.5 159 564C159 559.23 157.33 549.59 160 546C160 546 160 545.5 160 545C154.25 548.24 148.18 551.64 144 557Z" stroke="#798B0F" stroke-width="0.3"/>
<path d="M159 564C161.66 560.39 160 550.78 160 546C157.33 549.59 159 559.23 159 564Z" stroke="#475315" stroke-width="0.3"/>
<path d="M183 569C182.59 561.93 182.36 554.05 183 547C179.5 550.38 182.27 564.92 183 569Z" stroke="#0E121E" stroke-width="0.3"/>
<path d="M183 569C183.1 570.74 182.8 571.83 184 573C184 564.36 183.67 555.64 184 547C184 547 183.26 546.75 183 547C182.36 554.05 182.59 561.93 183 569Z" stroke="#313E0C" stroke-width="0.3"/>
<path d="M327 573C317.99 574.83 306.83 574 297 574C289.21 574 277.39 574.93 270 574C262.61 573.07 249.53 577.4 245 572C245 573 245 574 245 575C251.97 574.94 260.15 575.08 267 575C273.85 574.92 281.52 575.16 288 575C294.48 574.84 304.28 575.34 310 575C315.72 574.66 327.31 576.68 327 573Z" stroke="#424916" stroke-width="0.3"/>
<path d="M198 575C201.67 575 216.03 576.93 218 574C211.37 573.35 203.92 574.43 198 575Z" stroke="#414714" stroke-width="0.3"/>
<path d="M135 550C134.86 545.71 143.65 542.44 146.23 539.23C148.81 536.02 156.93 532.26 161 531C161.39 535.84 159.26 540.05 160 545C160 545.5 160 546 160 546C160 550.78 161.66 560.39 159 564C159 564.5 159 565 159 565C239.64 606.21 338.55 613.15 422 575C400.5 578.28 377.62 572.54 356 575C354.18 568.46 347.81 563.87 347 557C351.69 557.7 355.53 555.27 360 555C368.23 552.64 376.57 547.27 383.75 542.75C390.92 538.22 397.23 532.27 402.25 525.25C407.28 518.24 412.57 511.06 415.77 502.77C418.97 494.48 425.92 485.03 418.25 476.75C410.58 468.47 399.68 475 397.02 484.03C394.37 493.05 389.46 499.57 383.75 506.75C378.04 513.93 372.06 518.56 364.3 523.31C356.55 528.05 347.52 531.27 337.93 532.93C328.34 534.59 312.5 530.59 303.31 534.31C294.12 538.02 297.36 556.25 306.08 556.92C314.79 557.6 326.12 562.43 327 573C327.31 576.68 315.72 574.66 310 575C304.28 575.34 294.48 574.84 288 575C281.52 575.16 273.85 574.92 267 575C260.15 575.08 251.97 574.94 245 575C245 574 245 573 245 572C238.28 560.43 237.56 541.22 236 528C234.72 517.15 232.04 495.21 215 503C202.85 508.56 210.69 527.97 210.78 537.22C210.87 546.47 214.62 548.92 214.32 555.68C214.03 562.43 221.58 568.67 218 574C216.03 576.93 201.67 575 198 575C194.52 575 186.32 576.4 184 574C183.75 573.74 184 573 184 573C182.8 571.83 183.1 570.74 183 569C182.27 564.92 179.5 550.38 183 547C183.26 546.75 184 547 184 547C185.18 516.17 193.28 484.05 211 459C213.22 455.86 213.59 454.69 218.22 454.22C222.85 453.75 221.68 448.17 222 445C221.03 435.67 211.54 431.03 205.25 424.75C198.97 418.46 194.06 411.83 188.75 404.25C183.43 396.68 179.55 388.71 175.08 379.92C170.6 371.14 168.65 362.97 165.07 352.93C161.49 342.89 164.95 333.99 176 330C178.35 327.55 182.72 329.67 185 330C224.01 331.49 262.4 350.8 297.68 364.32C332.96 377.85 361.92 407.51 401 409C404.31 409.13 407.69 409.07 411 409C419.54 408.83 428.63 405.89 435 400C444.88 390.86 447 374.57 439.25 363.75C431.49 352.94 416.83 345.98 403.92 353.92C391.02 361.87 401.6 385.96 418 379C410.41 388.95 392.6 382.45 381.98 379.02C371.35 375.6 360.69 368.09 351 363C325.59 347.1 300.16 335.14 271.77 325.23C243.38 315.32 207.68 299.43 176 305C171.03 305.87 166.49 306.82 163 311C166.22 286.72 180.89 265.26 207.02 261.02C233.16 256.79 265.32 262.14 291 268C290.32 272.42 288.65 277.19 287 281C285.85 288.08 287.27 297.9 292.75 302.25C298.23 306.6 309.1 303.35 311 297C306.66 270.27 331.72 247.27 357.22 250.78C382.73 254.29 400.98 282.13 390 307C399.29 309.88 407.63 315.3 416.25 319.75C424.86 324.2 432.33 329.01 440.25 334.75C448.17 340.5 453.99 345.26 461.25 352.75C468.51 360.24 472.22 368.85 472.07 379.07C471.93 389.3 458.8 394.49 457 403C457.16 414.02 465.33 422.02 468.78 432.22C472.22 442.43 478.22 452.11 479.93 463.07C481.63 474.04 486.89 486.39 486 498C485.11 509.61 489.49 527.6 484 538C496.24 529.12 494.5 530.5 505 518.5C505 518.5 510 509.5 511 501C509.63 486.06 507.18 469.03 502.93 455.07C498.68 441.12 495.38 428.96 488.92 416.08C482.47 403.19 497.04 393.71 497 379C496.96 364.29 492.58 350.31 483.25 339.75C473.92 329.19 466.39 322.13 455.23 314.77C444.07 307.41 434.12 300.14 422 295C423.02 281.63 425.33 268.39 427.22 255.22C429.11 242.06 430.85 229.12 433 216C435.16 202.88 436.14 189.41 438.22 176.22C440.31 163.03 442.5 150.47 444.02 137.02C445.55 123.58 447.35 112.75 452 100C456.65 87.2502 436.18 77.0202 427.7 84.7002C419.21 92.3702 416.35 102.14 407.77 109.77C399.19 117.4 396.04 127.07 387 134C385.24 126.35 377.53 115.72 368.22 118.22C358.92 120.73 356.64 128.91 351 135C347.64 119.66 342.92 99.6502 339 85.0002C335.08 70.3502 336.04 45.3002 316 47.0002C295.96 48.7102 299.87 73.1702 294.33 87.3302C288.78 101.49 288.2 121.68 281 135C278.05 127.55 273.16 118.78 264 118C254.84 117.22 249.83 127.92 248 135C238.74 126.49 234.83 115.3 224.75 107.25C214.67 99.1902 215.86 83.3402 200 82.0002C184.15 80.6602 179.65 97.8802 185.22 110.78C190.8 123.68 188.94 140.43 193.02 153.98C197.11 167.53 197.74 182.18 201.02 195.98C204.31 209.77 206.62 223.98 209 238C197.37 238.84 184.51 243.5 175.08 250.08C165.66 256.67 157.95 262.33 151.31 272.31C144.66 282.28 141.02 293.71 139 306C136.97 318.29 138.63 336.14 140.67 348.33C142.71 360.52 146.6 372.93 151.02 383.98C155.45 395.02 159.95 404.97 166.25 414.75C172.54 424.54 178.66 431.7 186.75 440.25C194.84 448.8 181.54 459.08 178.31 469.31C175.07 479.53 168.21 491.87 167 503C157.74 504.76 147.42 509.48 139.7 514.7C131.97 519.91 124.14 524.69 118.3 532.3C112.47 539.91 129.92 546.37 135 550ZM336 175C340.82 184.65 349.36 177.29 352.92 170.92C356.47 164.54 362.19 158.96 366 153C370.15 159.88 364.87 172.48 373.25 177.75C381.63 183.03 387.88 172.16 392.75 166.75C397.63 161.35 402.12 154.65 406.77 148.77C411.42 142.89 416.93 136.36 421 130C419.93 149.74 414.75 171.5 412 192C411.38 192.91 411.15 192.86 410 193C402.64 196 393.47 193.35 385 194C376.53 194.65 366.69 193.74 358 194C349.31 194.26 339.71 193.95 331 194C322.29 194.05 312.54 194.14 304 194C295.46 193.86 285.05 194.41 277 194C268.95 193.59 256.94 194.96 250 194C243.06 193.04 227.88 196.64 226 193C225.41 191.86 225.31 191.24 225 190C220.25 170.86 217.75 151.16 213 132C218.87 136.62 223.14 143.66 227.92 149.08C232.7 154.51 238.17 162.16 242.92 167.08C247.67 172.01 252.97 183.84 261.22 179.22C269.47 174.6 263.4 159.28 268 153C276.12 161.96 275.35 167 285.25 175.75C295.14 184.5 300.8 169.12 301.93 158.93C303.05 148.74 307.06 136.33 309 126C310.93 115.66 314.49 104.5 318 95.0002C323.31 121.82 330.28 148.26 336 175ZM408 217C410.47 220.76 404.35 230.06 405.02 235.02C405.7 239.99 403.65 249.58 402 254C394.55 244.11 388.12 237.42 376.77 231.23C365.42 225.04 347.87 225.46 335.33 228.33C322.79 231.19 314.24 244.28 302 242C292.06 241.04 283.89 239.62 273.93 239.07C263.97 238.52 254.27 236.51 244 237C233.73 237.49 229.17 228.69 231 218C231.68 214.06 242.64 216.44 249 216C255.36 215.56 264.96 216.18 272 216C279.04 215.82 287.71 216.04 295 216C302.29 215.96 310.71 215.92 318 216C325.29 216.08 332.86 215.73 340 216C347.14 216.27 356.23 215.4 363 216C369.77 216.6 380.2 214.67 386 216C391.8 217.33 405.1 212.58 408 217Z" fill="#191E1C" stroke="black"/>
<path d="M260 72C246.33 67.85 238.56 88.17 252.33 93.67C266.1 99.17 273.56 76.12 260 72Z" fill="#171B16" stroke="black"/>
<path d="M382 72.0002C368.38 68.6302 360.49 87.7002 374.33 93.6702C388.17 99.6402 395.82 75.4202 382 72.0002Z" fill="#171C16" stroke="black"/>
<path d="M225 190C229.17 196.08 243.22 190.57 251 192C258.78 193.43 271.32 191.22 280 192C288.68 192.78 298.91 191.4 308 192C317.09 192.6 327.8 191.17 337 192C336.31 186.29 336.6 180.81 336 175C330.28 148.26 323.31 121.82 318 95C314.49 104.5 310.93 115.66 309 126C307.06 136.33 303.05 148.74 301.93 158.93C300.8 169.12 295.14 184.5 285.25 175.75C275.35 167 276.12 161.96 268 153C263.4 159.28 269.47 174.6 261.22 179.22C252.97 183.84 247.67 172.01 242.92 167.08C238.17 162.16 232.7 154.51 227.92 149.08C223.14 143.66 218.87 136.62 213 132C217.75 151.16 220.25 170.86 225 190Z" fill="#F0B625" stroke="black"/>
<path d="M336 175C336.6 180.81 336.31 186.29 337 192C344.77 191.3 343.22 191.98 352 192C360.78 192.02 373.32 191.88 382 192C390.68 192.12 391.16 190.74 397 192C402.84 193.26 408.45 188.77 412 192C414.75 171.5 419.93 149.74 421 130C416.93 136.36 411.42 142.89 406.77 148.77C402.12 154.65 397.63 161.35 392.75 166.75C387.88 172.16 381.63 183.03 373.25 177.75C364.87 172.48 370.15 159.88 366 153C362.19 158.96 356.47 164.54 352.92 170.92C349.36 177.29 340.82 184.65 336 175Z" fill="#C28920" stroke="black"/>
<path d="M139 139C129.62 136.95 120.98 151.53 128.75 157.25C136.52 162.97 137.89 171.12 145.25 176.75C152.61 182.38 153.28 190.78 162.33 194.67C171.38 198.56 180.42 181.94 172.3 176.7C164.19 171.45 163.1 161.79 155.75 157.25C148.4 152.71 147.26 140.81 139 139Z" fill="#191E18" stroke="black"/>
<path d="M501 140C491.17 137.36 487.59 151.27 480.75 155.75C473.91 160.24 470.9 168.82 463.75 173.75C456.61 178.68 456.66 192.14 467 194C477.33 195.86 480.43 183.21 487.25 178.25C494.07 173.28 496.74 165.03 504.25 160.25C511.75 155.46 510.39 142.52 501 140Z" fill="#181D17" stroke="black"/>
<path d="M226 193C231.18 196.35 241.63 191.49 248 193C254.37 194.51 263.08 192.33 270 193C276.92 193.67 284.81 192.71 292 193C299.19 193.29 306.63 192.9 314 193C321.37 193.1 329.55 193 337 193C336.96 193 337 192 337 192C327.8 191.17 317.09 192.6 308 192C298.91 191.4 288.68 192.78 280 192C271.32 191.22 258.78 193.43 251 192C243.22 190.57 229.17 196.08 225 190C225.31 191.24 225.41 191.86 226 193Z" fill="#88731B" stroke="black"/>
<path d="M337 193C360.72 193 386.48 195.9 410 193C411.15 192.86 411.38 192.91 412 192C408.45 188.77 402.84 193.26 397 192C391.16 190.74 390.68 192.12 382 192C373.32 191.88 360.78 192.02 352 192C343.22 191.98 344.77 191.3 337 192C337 192 336.96 193 337 193Z" fill="#87621B" stroke="black"/>
<path d="M410 193C386.48 195.9 360.72 193 337 193C329.55 193 321.37 193.1 314 193C306.63 192.9 299.19 193.29 292 193C284.81 192.71 276.92 193.67 270 193C263.08 192.33 254.37 194.51 248 193C241.63 191.49 231.18 196.35 226 193C227.88 196.64 243.06 193.04 250 194C256.94 194.96 268.95 193.59 277 194C285.05 194.41 295.46 193.86 304 194C312.54 194.14 322.29 194.05 331 194C339.71 193.95 349.31 194.26 358 194C366.69 193.74 376.53 194.65 385 194C393.47 193.35 402.64 196 410 193Z" fill="#000514" stroke="black"/>
<path d="M231 218C233.78 213.85 245.61 218.21 251 217C256.39 215.79 265.71 217.54 272 217C278.29 216.46 286.28 217.23 293 217C299.72 216.77 307.03 217.08 314 217C320.97 216.92 328.94 217 336 217C360 217 384 217 408 217C405.1 212.58 391.8 217.33 386 216C380.2 214.67 369.77 216.6 363 216C356.23 215.4 347.14 216.27 340 216C332.86 215.73 325.29 216.08 318 216C310.71 215.92 302.29 215.96 295 216C287.71 216.04 279.04 215.82 272 216C264.96 216.18 255.36 215.56 249 216C242.64 216.44 231.68 214.06 231 218Z" fill="#333012" stroke="black"/>
<path d="M231 218C229.17 228.69 233.73 237.49 244 237C254.27 236.51 263.97 238.52 273.93 239.07C283.89 239.62 292.06 241.04 302 242C315.09 239.79 323.5 220.8 336 217C328.94 217 320.97 216.92 314 217C307.03 217.08 299.72 216.77 293 217C286.28 217.23 278.29 216.46 272 217C265.71 217.54 256.39 215.79 251 217C245.61 218.21 233.78 213.85 231 218Z" fill="#F0B624" stroke="black"/>
<path d="M302 242C314.24 244.28 322.79 231.19 335.33 228.33C347.87 225.46 365.42 225.04 376.77 231.23C388.12 237.42 394.55 244.11 402 254C403.65 249.58 405.7 239.99 405.02 235.02C404.35 230.06 410.47 220.76 408 217C384 217 360 217 336 217C323.5 220.8 315.09 239.79 302 242Z" fill="#C28921" stroke="black"/>
<path d="M311 297C311.86 302.3 314.95 309.32 318 314C336.1 341.78 377.35 335.64 390 307C400.98 282.13 382.73 254.29 357.22 250.78C331.72 247.27 306.66 270.27 311 297ZM356 269C383.53 273.93 376.24 317.96 348 313C319.76 308.04 328.52 264.08 356 269Z" fill="#F9FAF8" stroke="black"/>
<path d="M176 305C177.54 297.17 177.65 299.45 181.31 291.31C184.96 283.16 194.95 276.31 203.02 274.02C211.1 271.74 211.99 271.18 219.07 270.07C226.15 268.97 231.87 270.84 238.01 270.99C244.15 271.15 248.84 273.39 254.22 273.78C259.61 274.16 266.45 276.69 271.07 276.93C275.69 277.17 283.36 282.69 287 281C288.65 277.19 290.32 272.42 291 268C265.32 262.14 233.16 256.79 207.02 261.02C180.89 265.26 166.22 286.72 163 311C166.49 306.82 171.03 305.87 176 305Z" fill="#DEED7B" stroke="black"/>
<path d="M356 269C328.52 264.08 319.76 308.04 348 313C376.24 317.96 383.53 273.93 356 269Z" fill="#1C1E1D" stroke="black"/>
<path d="M176 305C207.68 299.43 243.38 315.32 271.77 325.23C300.16 335.14 325.59 347.1 351 363C347.84 360.09 341.27 353.47 337 349C348.21 352.1 361.51 354.87 373 352C351.83 347.99 323.92 335.81 318 314C314.95 309.32 311.86 302.3 311 297C309.1 303.35 298.23 306.6 292.75 302.25C287.27 297.9 285.85 288.08 287 281C283.36 282.69 275.69 277.17 271.07 276.93C266.45 276.69 259.61 274.16 254.22 273.78C248.84 273.39 244.15 271.15 238.01 270.99C231.87 270.84 226.15 268.97 219.07 270.07C211.99 271.18 211.1 271.74 203.02 274.02C194.95 276.31 184.96 283.16 181.31 291.31C177.65 299.45 177.54 297.17 176 305ZM233 288C228.62 290.21 215.31 290.18 211 288C198.38 281.62 215.05 271.66 222 272C228.95 272.34 245.12 281.88 233 288Z" fill="#97B611" stroke="black"/>
<path d="M472 270C453.91 266.25 447.41 292.18 464.93 297.07C482.45 301.96 488.84 273.49 472 270Z" fill="#191D18" stroke="black"/>
<path d="M211 288C215.17 289.37 228.83 289.37 233 288C245.12 281.88 228.95 272.34 222 272C215.05 271.66 198.38 281.62 211 288Z" fill="#1C1E1C" stroke="black"/>
<path d="M233 288C228.83 289.37 215.17 289.37 211 288C215.31 290.18 228.62 290.21 233 288Z" fill="#5A681B" stroke="black"/>
<path d="M109 298C94.6104 293.45 86.4804 313.86 100.33 319.67C114.18 325.48 122.03 302.12 109 298Z" fill="#181C17" stroke="black"/>
<path d="M536 298C521.37 293.56 514.62 314.6 528.33 319.67C542.04 324.74 549.18 302 536 298Z" fill="#171C16" stroke="black"/>
<path d="M318 314C323.92 335.81 351.83 347.99 373 352C361.51 354.87 348.21 352.1 337 349C341.27 353.47 347.84 360.09 351 363C360.69 368.09 371.35 375.6 381.98 379.02C392.6 382.45 410.41 388.95 418 379C401.6 385.96 391.02 361.87 403.92 353.92C416.83 345.98 431.49 352.94 439.25 363.75C447 374.57 444.88 390.86 435 400C416.88 428 376.38 420.15 348.98 409.02C321.57 397.9 298.32 381.32 269.78 371.22C241.23 361.12 208.59 345.8 176 348C177.47 366.54 189.33 383.69 195.77 400.23C202.21 416.77 223.78 427.42 222 445C221.68 448.17 222.85 453.75 218.22 454.22C213.59 454.69 213.22 455.86 211 459C206.93 468.62 203.72 482.83 201 494C207.17 493.56 211.65 498.63 215 503C232.04 495.21 234.72 517.15 236 528C239.64 534.59 248.52 539.3 253.75 545.25C258.99 551.19 266.71 557.21 273.23 561.77C279.75 566.33 289.37 572.42 297 574C306.83 574 317.99 574.83 327 573C326.12 562.43 314.79 557.6 306.08 556.92C297.36 556.25 294.12 538.02 303.31 534.31C312.5 530.59 328.34 534.59 337.93 532.93C347.52 531.27 356.55 528.05 364.3 523.31C372.06 518.56 378.04 513.93 383.75 506.75C389.46 499.57 394.37 493.05 397.02 484.03C399.68 475 410.58 468.47 418.25 476.75C425.92 485.03 418.97 494.48 415.77 502.77C412.57 511.06 407.28 518.24 402.25 525.25C397.23 532.27 390.92 538.22 383.75 542.75C376.57 547.27 368.23 552.64 360 555C367.31 555.95 379.66 562.39 387.68 557.68C395.7 552.97 402.45 551.27 408.7 544.7C414.94 538.12 417.87 533.07 421.92 524.92C425.98 516.78 426.81 506.6 428.33 497.33C429.85 488.06 427.65 475.13 429.99 465.99C432.34 456.85 437.53 450.22 438.78 440.78C440.02 431.34 442.26 422.41 443.93 412.93C445.59 403.44 445.86 392.44 448 383C450.84 387.71 450.03 397.78 458 398C458.62 399.94 456.8 401.13 457 403C458.8 394.49 471.93 389.3 472.07 379.07C472.22 368.85 468.51 360.24 461.25 352.75C453.99 345.26 448.17 340.5 440.25 334.75C432.33 329.01 424.86 324.2 416.25 319.75C407.63 315.3 399.29 309.88 390 307C377.35 335.64 336.1 341.78 318 314ZM236 370C246.43 372.43 247.62 390.54 254.77 398.23C261.92 405.92 265.91 417.19 275.25 424.75C284.59 432.31 291.01 439.55 302.23 445.77C313.45 451.99 321.98 454.95 335.68 459.32C349.38 463.7 341.21 488.64 327.33 483.67C313.45 478.7 304.88 476.96 293.31 470.7C281.73 464.43 275.51 458.93 265.92 451.08C256.33 443.24 250.54 435.02 243.08 425.92C235.63 416.81 232.02 406.39 225.23 396.77C218.44 387.15 217.96 365.8 236 370Z" fill="#768109" stroke="black"/>
<path d="M176 330C176.44 329.84 177 330 177 330C179.66 330 182.34 329.9 185 330C182.72 329.67 178.35 327.55 176 330Z" fill="#455317" stroke="black"/>
<path d="M222 445C223.78 427.42 202.21 416.77 195.77 400.23C189.33 383.69 177.47 366.54 176 348C175.6 342.92 174.73 334.46 177 330C177 330 176.44 329.84 176 330C164.95 333.99 161.49 342.89 165.07 352.93C168.65 362.97 170.6 371.14 175.08 379.92C179.55 388.71 183.43 396.68 188.75 404.25C194.06 411.83 198.97 418.46 205.25 424.75C211.54 431.03 221.03 435.67 222 445Z" fill="#DCEB7B" stroke="black"/>
<path d="M176 348C208.59 345.8 241.23 361.12 269.78 371.22C298.32 381.32 321.57 397.9 348.98 409.02C376.38 420.15 416.88 428 435 400C428.63 405.89 419.54 408.83 411 409C407.68 409.4 404.28 409.47 401 409C361.92 407.51 332.96 377.85 297.68 364.32C262.4 350.8 224.01 331.49 185 330C182.34 329.9 179.66 330 177 330C174.73 334.46 175.6 342.92 176 348Z" fill="#98B619" stroke="black"/>
<path d="M236 370C217.96 365.8 218.44 387.15 225.23 396.77C232.02 406.39 235.63 416.81 243.08 425.92C250.54 435.02 256.33 443.24 265.92 451.08C275.51 458.93 281.73 464.43 293.31 470.7C304.88 476.96 313.45 478.7 327.33 483.67C341.21 488.64 349.38 463.7 335.68 459.32C321.98 454.95 313.45 451.99 302.23 445.77C291.01 439.55 284.59 432.31 275.25 424.75C265.91 417.19 261.92 405.92 254.77 398.23C247.62 390.54 246.43 372.43 236 370Z" fill="#1E1F1D" stroke="black"/>
<path d="M103 376C85.8698 370.59 78.0298 395.26 93.9298 401.07C109.82 406.88 117.5 380.58 103 376Z" fill="#181D17" stroke="black"/>
<path d="M545 376C528.73 371.06 520.92 394.95 536.33 400.67C551.74 406.39 559.71 380.47 545 376Z" fill="#181C17" stroke="black"/>
<path d="M360 555C355.53 555.27 351.69 557.7 347 557C347.81 563.87 354.18 568.46 356 575C377.62 572.54 400.5 578.28 422 575C424.98 573.64 428.22 572.39 431 571C439.43 562.15 437.39 550.19 441.99 538.99C446.6 527.8 442.73 510.49 445 498C447.27 485.51 437.98 470.04 446.75 459.75C455.53 449.47 469.8 461.11 468.78 473.22C467.76 485.33 473.58 501.82 470.07 514.07C466.56 526.33 470.7 540.94 464 552C470.62 547.5 477.58 542.97 484 538C489.49 527.6 485.11 509.61 486 498C486.89 486.39 481.63 474.04 479.93 463.07C478.22 452.11 472.22 442.43 468.78 432.22C465.33 422.02 457.16 414.02 457 403C456.8 401.13 458.62 399.94 458 398C450.03 397.78 450.84 387.71 448 383C445.86 392.44 445.59 403.44 443.93 412.93C442.26 422.41 440.02 431.34 438.78 440.78C437.53 450.22 432.34 456.85 429.99 465.99C427.65 475.13 429.85 488.06 428.33 497.33C426.81 506.6 425.98 516.78 421.92 524.92C417.87 533.07 414.94 538.12 408.7 544.7C402.45 551.27 395.7 552.97 387.68 557.68C379.66 562.39 367.31 555.95 360 555Z" fill="#65700C" stroke="black"/>
<path d="M411 409C407.69 409.07 404.31 409.13 401 409C404.28 409.47 407.68 409.4 411 409Z" fill="#5B692C" stroke="black"/>
<path d="M105 430C88.1395 424.88 78.7495 448.49 94.9295 456.07C111.1 463.65 121.38 434.97 105 430Z" fill="#181D17" stroke="black"/>
<path d="M540 430C522.44 428.52 519.37 456.19 537 458C554.63 459.81 556.91 431.42 540 430Z" fill="#191D17" stroke="black"/>
<path d="M431 571C442.39 565.31 453.46 559.16 464 552C470.7 540.94 466.56 526.33 470.07 514.07C473.58 501.82 467.76 485.33 468.78 473.22C469.8 461.11 455.53 449.47 446.75 459.75C437.98 470.04 447.27 485.51 445 498C442.73 510.49 446.6 527.8 441.99 538.99C437.39 550.19 439.43 562.15 431 571Z" fill="#191F1C" stroke="black"/>
<path d="M184 547C183.67 555.64 184 564.36 184 573C184 573 183.75 573.74 184 574C188.63 574.42 193.36 573.69 198 574C195.94 547.49 196.23 519.63 201 494C203.72 482.83 206.93 468.62 211 459C193.28 484.05 185.18 516.17 184 547Z" fill="#A0BA19" stroke="black"/>
<path d="M184 574C186.32 576.4 194.52 575 198 575C203.92 574.43 211.37 573.35 218 574C221.58 568.67 214.03 562.43 214.32 555.68C214.62 548.92 210.87 546.47 210.78 537.22C210.69 527.97 202.85 508.56 215 503C211.65 498.63 207.17 493.56 201 494C196.23 519.63 195.94 547.49 198 574C193.36 573.69 188.63 574.42 184 574Z" fill="#656D0B" stroke="black"/>
<path d="M245 572C249.53 577.4 262.61 573.07 270 574C277.39 574.93 289.21 574 297 574C289.37 572.42 279.75 566.33 273.23 561.77C266.71 557.21 258.99 551.19 253.75 545.25C248.52 539.3 239.64 534.59 236 528C237.56 541.22 238.28 560.43 245 572Z" fill="#656E0B" stroke="black"/>
<path d="M135 550C138 552.14 140.58 555.03 144 557C148.18 551.64 154.25 548.24 160 545C159.26 540.05 161.39 535.84 161 531C156.93 532.26 148.81 536.02 146.23 539.23C143.65 542.44 134.86 545.71 135 550Z" fill="#CADB77" stroke="black"/>
<path d="M144 557C148.92 559.83 153.93 562.41 159 565C159 565 159 564.5 159 564C159 559.23 157.33 549.59 160 546C160 546 160 545.5 160 545C154.25 548.24 148.18 551.64 144 557Z" fill="#798B0F" stroke="black"/>
<path d="M159 564C161.66 560.39 160 550.78 160 546C157.33 549.59 159 559.23 159 564Z" fill="#475315" stroke="black"/>
<path d="M183 569C182.59 561.93 182.36 554.05 183 547C179.5 550.38 182.27 564.92 183 569Z" fill="#0E121E" stroke="black"/>
<path d="M183 569C183.1 570.74 182.8 571.83 184 573C184 564.36 183.67 555.64 184 547C184 547 183.26 546.75 183 547C182.36 554.05 182.59 561.93 183 569Z" fill="#313E0C" stroke="black"/>
<path d="M327 573C317.99 574.83 306.83 574 297 574C289.21 574 277.39 574.93 270 574C262.61 573.07 249.53 577.4 245 572C245 573 245 574 245 575C251.97 574.94 260.15 575.08 267 575C273.85 574.92 281.52 575.16 288 575C294.48 574.84 304.28 575.34 310 575C315.72 574.66 327.31 576.68 327 573Z" fill="#424916" stroke="black"/>
<path d="M198 575C201.67 575 216.03 576.93 218 574C211.37 573.35 203.92 574.43 198 575Z" fill="#414714" stroke="black"/>
</svg>
