
<svg xmlns="http://www.w3.org/2000/svg" viewBox="0 0 1200 1200"><path fill="#97dfff" d="M967.58 398.77a43.2 43.2 0 0 0-71.36-22.15 61.42 61.42 0 0 0-107.19 3 33 33 0 0 0-48.67 18.13Z"/><path fill="#92b737" d="M104.87 1121.64H534a20.34 20.34 0 0 0-7.13-36.1 14.17 14.17 0 1 0-11.49-24.31 40.35 40.35 0 0 0-38.08-31.16 14.17 14.17 0 0 0-26.52-9.31 40.34 40.34 0 0 0-59.08.68 21.79 21.79 0 0 0-37.7-10.25 40.35 40.35 0 0 0-57.92 22.26 21.77 21.77 0 0 0-35.24-16.18 21.8 21.8 0 0 0-40.49-6.53 20.37 20.37 0 0 0-28.17 29.12 58.22 58.22 0 0 0-11.67 12.05 14.16 14.16 0 0 0-27.87 3.59c0 .43 0 .85.06 1.27a32.74 32.74 0 0 0-26.16 26.3 22.13 22.13 0 1 0-21.66 38.57Z"/><path fill="#527a13" d="M402.58 1127.88a50.66 50.66 0 0 0-49.39-39.45c-1.34 0-2.68.07-4 .18a23.42 23.42 0 0 0-40.83-18.79 83.07 83.07 0 0 0-112.18 4.18 19.7 19.7 0 0 0-32.58 15v.42a50.61 50.61 0 0 0-51.68 21.22 29.27 29.27 0 0 0-40.71 17.27Z"/><path fill="#dab971" d="M550.79 186.55h74.44v56.71h-74.44z"/><path fill="#725027" d="M550.79 177.05h74.44v9.5h-74.44z"/><path fill="#c9a55d" d="M505.25 580.81h165.54v544.57H505.25z"/><path fill="#dab971" d="M659.44 580.81h11.35v544.57h-11.35z"/><path fill="#b7924f" d="M505.25 580.81h82.86v544.57h-82.86z"/><path fill="#a57f42" d="M505.25 580.81h13.05v544.57h-13.05z"/><path fill="#dab971" d="M498.2 395.47h179.65v146.27H498.2zM518.52 348.48H658.2v46.99H518.52z"/><path fill="#b7924f" d="M518.52 348.48h69.78v46.99h-69.78z"/><path fill="#725027" d="M513.18 339.53h150.15v11.13H513.18z"/><path fill="#c9a55d" d="m588.11 580.81-70.39 100.14V580.81h70.39zM588.13 712.26l-70.41 71.44v-70.81l70.41-.63zM588.13 814.69l-70.41 76.61v-77.55l70.41.94z"/><path fill="#bf9956" d="M505.25 783.93h165.54v29.02H505.25z"/><path fill="#a58149" d="M505.25 783.93h82.94v29.02h-82.94z"/><path fill="#a07a3f" d="M505.25 783.38h165.54v6.16H505.25zM505.25 808.54h165.54v6.16H505.25z"/><path fill="#896433" d="M505.25 783.38h82.88v6.16h-82.88zM505.25 808.54h82.88v6.16h-82.88zM521.24 792.76h5.82v12.68h-5.82zM542.88 792.76h5.82v12.68h-5.82zM565.54 792.76h5.82v12.68h-5.82zM604.7 792.76h5.82v12.68h-5.82zM626.34 792.76h5.82v12.68h-5.82zM649.01 792.76h5.82v12.68h-5.82z"/><path fill="#bf9956" d="M505.25 681.5h165.54v29.02H505.25z"/><path fill="#a58149" d="M505.25 681.5h82.94v29.02h-82.94z"/><path fill="#a07a3f" d="M505.25 680.94h165.54v6.16H505.25z"/><path fill="#896433" d="M505.25 680.94h82.88v6.16h-82.88zM521.24 690.33h5.82v12.68h-5.82zM542.88 690.33h5.82v12.68h-5.82zM565.54 690.33h5.82v12.68h-5.82zM604.7 690.33h5.82v12.68h-5.82zM626.34 690.33h5.82v12.68h-5.82zM649.01 690.33h5.82v12.68h-5.82z"/><path fill="#a07a3f" d="M505.25 706.1h165.54v6.16H505.25z"/><path fill="#896433" d="M505.25 706.1h82.88v6.16h-82.88z"/><path fill="#c9a55d" d="m588.13 921.62-71.38 72.44v-72.71s69.88-1.24 71.38.27ZM588.13 1023l-70.41 72.83v-71.8s70.41.86 70.41-1.03Z"/><path fill="#bf9956" d="M505.25 993.29h165.54v29.02H505.25z"/><path fill="#a58149" d="M505.25 993.29h82.94v29.02h-82.94z"/><path fill="#a07a3f" d="M505.25 992.73h165.54v6.16H505.25zM505.25 1017.89h165.54v6.16H505.25z"/><path fill="#896433" d="M505.25 992.73h82.88v6.16h-82.88zM505.25 1017.89h82.88v6.16h-82.88zM521.24 1002.12h5.82v12.68h-5.82zM542.88 1002.12h5.82v12.68h-5.82zM565.54 1002.12h5.82v12.68h-5.82zM604.7 1002.12h5.82v12.68h-5.82zM626.34 1002.12h5.82v12.68h-5.82zM649.01 1002.12h5.82v12.68h-5.82z"/><path fill="#bf9956" d="M505.25 890.86h165.54v29.02H505.25z"/><path fill="#a58149" d="M505.25 890.86h82.94v29.02h-82.94z"/><path fill="#a07a3f" d="M505.25 890.3h165.54v6.16H505.25zM505.25 915.46h165.54v6.16H505.25z"/><path fill="#896433" d="M505.25 890.3h82.88v6.16h-82.88zM505.25 915.46h82.88v6.16h-82.88zM521.24 899.68h5.82v12.68h-5.82zM542.88 899.68h5.82v12.68h-5.82zM565.54 899.68h5.82v12.68h-5.82zM604.7 899.68h5.82v12.68h-5.82zM626.34 899.68h5.82v12.68h-5.82zM649.01 899.68h5.82v12.68h-5.82z"/><path fill="#bf9956" d="M505.25 1096.62h165.54v29.02H505.25z"/><path fill="#a58149" d="M505.25 1096.62h82.94v29.02h-82.94z"/><path fill="#a07a3f" d="M505.25 1096.06h165.54v6.16H505.25zM505.25 1121.22h165.54v6.16H505.25z"/><path fill="#896433" d="M505.25 1096.06h82.88v6.16h-82.88zM505.25 1121.22h82.88v6.16h-82.88zM521.24 1105.44h5.82v12.68h-5.82zM542.88 1105.44h5.82v12.68h-5.82zM565.54 1105.44h5.82v12.68h-5.82zM604.7 1105.44h5.82v12.68h-5.82zM626.34 1105.44h5.82v12.68h-5.82zM649.01 1105.44h5.82v12.68h-5.82zM542.14 591.64h5.82v35.87h-5.82zM564.81 591.64h5.82v35.87h-5.82zM542.14 635.95h5.82v35.87h-5.82zM564.81 635.95h5.82v35.87h-5.82zM603.97 591.64h5.82v35.87h-5.82zM626.64 591.64h5.82v35.87h-5.82zM603.97 635.95h5.82v35.87h-5.82zM626.64 635.95h5.82v35.87h-5.82zM542.14 718.19h5.82v27.19h-5.82zM564.81 718.19h5.82v27.19h-5.82zM542.14 751.79h5.82v27.19h-5.82zM564.81 751.79h5.82v27.19h-5.82zM603.97 718.19h5.82v27.19h-5.82zM626.64 718.19h5.82v27.19h-5.82zM603.97 751.79h5.82v27.19h-5.82zM626.64 751.79h5.82v27.19h-5.82zM542.14 825.36h5.82v27.19h-5.82zM564.81 825.36h5.82v27.19h-5.82zM542.14 858.96h5.82v27.19h-5.82zM564.81 858.96h5.82v27.19h-5.82zM603.97 825.36h5.82v27.19h-5.82zM626.64 825.36h5.82v27.19h-5.82zM603.97 858.96h5.82v27.19h-5.82zM626.64 858.96h5.82v27.19h-5.82zM542.14 927.38h5.82v27.19h-5.82zM564.81 927.38h5.82v27.19h-5.82zM542.14 960.97h5.82v27.19h-5.82zM564.81 960.97h5.82v27.19h-5.82zM603.97 927.38h5.82v27.19h-5.82zM626.64 927.38h5.82v27.19h-5.82zM603.97 960.97h5.82v27.19h-5.82zM626.64 960.97h5.82v27.19h-5.82zM542.14 1030.42h5.82v27.19h-5.82zM564.81 1030.42h5.82v27.19h-5.82zM542.14 1064.02h5.82v27.19h-5.82zM564.81 1064.02h5.82v27.19h-5.82zM603.97 1030.42h5.82v27.19h-5.82zM626.64 1030.42h5.82v27.19h-5.82zM603.97 1064.02h5.82v27.19h-5.82zM626.64 1064.02h5.82v27.19h-5.82z"/><path fill="#f9cd15" d="M522.94 400.4h130.14v136.36H522.94z"/><path fill="#d3aa00" d="M658.17 541.85H517.85V395.31h140.32ZM528 531.67h120V405.49H528Z"/><circle cx="588.24" cy="467.92" r="51.62" fill="#efe9e8"/><path fill="#fff" d="M588.49 416.31v103.22a51.61 51.61 0 0 0 0-103.22Z"/><circle cx="588.24" cy="467.92" r="51.62" fill="none" stroke="#896433" stroke-miterlimit="10" stroke-width="2"/><path fill="#442f2c" d="m513.18 339.54 37.98-97.73h73.56l38.61 97.73H513.18zM550.79 177.05l36.62-113.37 37.82 113.37h-74.44zM573.41 236.3v-37.08a6.55 6.55 0 1 0-13.09 0v37.08ZM595.05 236.3v-37.08a6.55 6.55 0 1 0-13.09 0v37.08ZM616.69 236.3v-37.08a6.55 6.55 0 1 0-13.09 0v37.08ZM540.32 390.43v-29.05c0-2.81-2.77-5.12-6.15-5.12s-6.15 2.31-6.15 5.12v29.05ZM560.66 390.43v-29.05c0-2.81-2.77-5.12-6.15-5.12s-6.15 2.31-6.15 5.12v29.05ZM581 390.43v-29.05c0-2.81-2.76-5.12-6.15-5.12s-6.15 2.31-6.15 5.12v29.05ZM608.33 390.43v-29.05c0-2.81-2.77-5.12-6.15-5.12s-6.15 2.31-6.15 5.12v29.05ZM628.67 390.43v-29.05c0-2.81-2.77-5.12-6.15-5.12s-6.15 2.31-6.15 5.12v29.05ZM649 390.43v-29.05c0-2.81-2.76-5.12-6.15-5.12s-6.15 2.31-6.15 5.12v29.05Z"/><path fill="#332220" d="m513.18 339.54 111.54-97.73h-73.56l-37.98 97.73zM550.79 177.05l56.67-53.02-19.63-59.5-37.04 112.52z"/><circle cx="587.83" cy="70.95" r="8.72" fill="#442f2c"/><ellipse cx="587.83" cy="61.2" fill="#f9cd15" rx="6.54" ry="5.79"/><path fill="#f9cd15" d="M587.53 59.52a2.18 2.18 0 0 1-2.18-2.18V28.93a2.18 2.18 0 0 1 4.36 0v28.41a2.19 2.19 0 0 1-2.18 2.18Z"/><path fill="#442f2c" d="M510.11 387.28a8.35 8.35 0 0 0-6.18-8.06v-10.6a2.18 2.18 0 0 0-4.36 0v10.6a8.35 8.35 0 0 0-1.27 15.67v152h6.91v-152a8.34 8.34 0 0 0 4.9-7.61ZM682.72 387.28a8.36 8.36 0 0 0-6.18-8.06v-10.6a2.19 2.19 0 0 0-4.37 0v10.6a8.35 8.35 0 0 0-1.27 15.67v152h6.91v-152a8.35 8.35 0 0 0 4.91-7.61Z"/><path fill="#c6a460" d="M498.2 541.22h179.65v23.39H498.2z"/><path fill="#896433" d="M498.2 558.84h179.65v5.78H498.2z"/><path fill="#513936" d="M498.2 558.88h179.65v22.14H498.2z"/><path fill="#442f2c" d="M498.2 558.88h90.78v22.14H498.2zM657.42 314.28v25.23h5.91v-25.23a7.14 7.14 0 0 0-1.09-13.4v-9.06a1.87 1.87 0 0 0-3.73 0v9.06a7.14 7.14 0 0 0-1.09 13.4ZM513.16 314.28v25.23h5.91v-25.23a7.14 7.14 0 0 0-1.09-13.4v-9.06a1.87 1.87 0 0 0-3.73 0v9.06a7.14 7.14 0 0 0-1.09 13.4Z"/><path fill="#513936" d="M622.41 330.99h23.27l-23.27-61.07v61.07zM601.57 169.59h13.3l-13.3-34.9v34.9z"/><path fill="#332220" d="m588.98 558.88-90.79 22.14V558.7l90.79.18z"/><path fill="none" stroke="#b29000" stroke-miterlimit="10" stroke-width="2" d="M528.03 405.49h119.96v126.18H528.03z"/><path fill="#997c00" d="M516.4 395.31h2.91v146.54h-2.91zM656.59 395.34h2.91v146.52h-2.91z"/><path fill="#896433" d="M585.82 423.57h4.36v10.66h-4.36zM585.82 501.89h4.36v10.66h-4.36zM543.51 465.88h10.66v4.36h-10.66zM621.83 465.88h10.66v4.36h-10.66z"/><path fill="#896433" d="M554.98 493.57h10.66v4.36h-10.66z" transform="rotate(-45 560.308 495.753)"/><path fill="#896433" d="M610.36 438.19h10.66v4.36h-10.66z" transform="rotate(-45 615.689 440.373)"/><path fill="#896433" d="M558.13 435.04h4.36v10.66h-4.36z" transform="rotate(-45 560.308 440.373)"/><path fill="#896433" d="M613.51 490.42h4.36v10.66h-4.36z" transform="rotate(-45 615.73 495.757)"/><path fill="#896433" d="M592.29 468a4.12 4.12 0 1 1-4.12-4.12 4.11 4.11 0 0 1 4.12 4.12Z"/><path fill="#896433" d="M585.4 457.02h23.99v4.36H585.4z" transform="rotate(-45 597.397 459.2)"/><path fill="#896433" d="M593.92 469.13h4.36v32.97h-4.36z" transform="rotate(-24.3 596.237 485.68)"/><path fill="#332220" d="M504.74 580.81h7.61v544.57h-7.61z"/><path fill="#332220" d="m670.79 814.69-160.34.03v10.18l160.34-10.21zM670.79 921.86l-160.34.03v10.18l160.34-10.21zM670.79 1023.88l-160.34.02v10.18l160.34-10.2zM670.79 711.65l-160.34.02v10.18l160.34-10.2z"/><path fill="#896433" d="M498.27 541.3v17.4l179.58-17.48-179.58.08zM665.06 580.81h6.77v546.63h-6.77z"/><path fill="#c9a55d" d="M671.14 815.98h457.49v311.89H671.14z"/><path fill="#332220" d="M671.14 815.98h457.49v55.13H671.14z"/><path fill="#c9a55d" d="M945.51 815.98h183.11v311.89H945.51z"/><path fill="#513936" d="M899.5 815.98h229.13v55.13H899.5z"/><path fill="#dab971" d="M704.48 870.93h35.5v256.94h-35.5z" transform="rotate(180 722.23 999.4)"/><path fill="#442f2c" d="M692.94 937.35V917.1c0-2-2.38-3.57-5.29-3.57s-5.29 1.61-5.29 3.57v20.25ZM710.45 937.35V917.1c0-2-2.38-3.57-5.29-3.57s-5.3 1.61-5.3 3.57v20.25ZM728 937.35V917.1c0-2-2.38-3.57-5.29-3.57s-5.3 1.61-5.3 3.57v20.25ZM692.94 989.54v-20.25c0-2-2.38-3.57-5.29-3.57s-5.29 1.6-5.29 3.57v20.25ZM710.45 989.54v-20.25c0-2-2.38-3.57-5.29-3.57s-5.3 1.6-5.3 3.57v20.25ZM728 989.54v-20.25c0-2-2.38-3.57-5.29-3.57s-5.3 1.6-5.3 3.57v20.25ZM692.94 1040.71v-20.26c0-2-2.38-3.57-5.29-3.57s-5.29 1.61-5.29 3.57v20.26ZM710.45 1040.71v-20.26c0-2-2.38-3.57-5.29-3.57s-5.3 1.61-5.3 3.57v20.26ZM728 1040.71v-20.26c0-2-2.38-3.57-5.29-3.57s-5.3 1.61-5.3 3.57v20.26ZM692.94 1092.9v-20.26c0-2-2.38-3.57-5.29-3.57s-5.29 1.61-5.29 3.57v20.26ZM710.45 1092.9v-20.26c0-2-2.38-3.57-5.29-3.57s-5.3 1.61-5.3 3.57v20.26ZM728 1092.9v-20.26c0-2-2.38-3.57-5.29-3.57s-5.3 1.61-5.3 3.57v20.26Z"/><path fill="#c9a55d" d="M721.68 852.92v-9.62h-9.34l-7.26-20.94-6.77 20.94H689v9.62c-9.13 3.73-15.87 10.49-18 18.54h68.67c-2.12-8.05-8.86-14.81-17.99-18.54Z"/><path fill="#dab971" d="M704.69 871.46h35c-2.12-8.05-8.86-14.81-18-18.54v-9.62h-9.34l-7.26-20.94-.39 1.22Z"/><path fill="#b7924f" d="M738.53 844.6h29.45v281.83h-29.45z"/><path fill="#b7924f" d="M731.59 831.03h43.32v17.33h-43.32z"/><path fill="#b7924f" d="m767.27 832.47-12.45-47.73a7.19 7.19 0 0 0-.08-13.94v-22.08a2.17 2.17 0 1 0-4.33 0v22.34a7.19 7.19 0 0 0 .76 13.68l-11.93 47.73Z"/><path fill="#9b773e" d="m731.59 831.03 17.13 16.36v279.17h-10.19V848.38l-6.94-.03v-17.32zM739.09 831.03h14.44l-.72-46.45-1.64.16-12.08 46.29z"/><path fill="#dab971" d="M801.34 870.53h35.5v257.34h-35.5z" transform="rotate(180 819.09 999.2)"/><path fill="#442f2c" d="M789.81 937.35V917.1c0-2-2.39-3.57-5.3-3.57s-5.29 1.61-5.29 3.57v20.25ZM807.32 937.35V917.1c0-2-2.39-3.57-5.3-3.57s-5.29 1.61-5.29 3.57v20.25ZM824.83 937.35V917.1c0-2-2.39-3.57-5.3-3.57s-5.29 1.61-5.29 3.57v20.25ZM789.81 989.54v-20.25c0-2-2.39-3.57-5.3-3.57s-5.29 1.6-5.29 3.57v20.25ZM807.32 989.54v-20.25c0-2-2.39-3.57-5.3-3.57s-5.29 1.6-5.29 3.57v20.25ZM824.83 989.54v-20.25c0-2-2.39-3.57-5.3-3.57s-5.29 1.6-5.29 3.57v20.25ZM789.81 1040.71v-20.26c0-2-2.39-3.57-5.3-3.57s-5.29 1.61-5.29 3.57v20.26ZM807.32 1040.71v-20.26c0-2-2.39-3.57-5.3-3.57s-5.29 1.61-5.29 3.57v20.26ZM824.83 1040.71v-20.26c0-2-2.39-3.57-5.3-3.57s-5.29 1.61-5.29 3.57v20.26ZM789.81 1092.9v-20.26c0-2-2.39-3.57-5.3-3.57s-5.29 1.61-5.29 3.57v20.26ZM807.32 1092.9v-20.26c0-2-2.39-3.57-5.3-3.57s-5.29 1.61-5.29 3.57v20.26ZM824.83 1092.9v-20.26c0-2-2.39-3.57-5.3-3.57s-5.29 1.61-5.29 3.57v20.26Z"/><path fill="#c9a55d" d="M818.55 852.92v-9.62h-9.35l-7.26-20.94-6.77 20.94h-9.33v9.62c-9.12 3.73-15.87 10.49-18 18.54h68.67c-2.09-8.05-8.84-14.81-17.96-18.54Z"/><path fill="#dab971" d="M801.55 871.46h35c-2.11-8.05-8.86-14.81-18-18.54v-9.62h-9.35l-7.26-20.94-.39 1.22Z"/><path fill="#b7924f" d="M835.39 844.6h29.45v281.83h-29.45z"/><path fill="#b7924f" d="M828.46 831.03h43.32v17.33h-43.32z"/><path fill="#b7924f" d="m864.13 832.47-12.45-47.73a7.19 7.19 0 0 0-.08-13.94v-22.08a2.17 2.17 0 1 0-4.33 0v22.34a7.19 7.19 0 0 0 .76 13.68l-11.93 47.73Z"/><path fill="#9b773e" d="m828.46 831.03 17.12 16.36v279.17h-10.19V848.38l-6.93-.03v-17.32zM835.96 831.03h14.44l-.73-46.45-1.64.16-12.07 46.29z"/><path fill="#dab971" d="M898.2 870.53h35.5v257.34h-35.5z" transform="rotate(180 915.955 999.2)"/><path fill="#442f2c" d="M886.67 937.35V917.1c0-2-2.38-3.57-5.29-3.57s-5.3 1.61-5.3 3.57v20.25ZM904.18 937.35V917.1c0-2-2.38-3.57-5.29-3.57s-5.3 1.61-5.3 3.57v20.25ZM921.69 937.35V917.1c0-2-2.38-3.57-5.3-3.57s-5.29 1.61-5.29 3.57v20.25ZM886.67 989.54v-20.25c0-2-2.38-3.57-5.29-3.57s-5.3 1.6-5.3 3.57v20.25ZM904.18 989.54v-20.25c0-2-2.38-3.57-5.29-3.57s-5.3 1.6-5.3 3.57v20.25ZM921.69 989.54v-20.25c0-2-2.38-3.57-5.3-3.57s-5.29 1.6-5.29 3.57v20.25ZM886.67 1040.71v-20.26c0-2-2.38-3.57-5.29-3.57s-5.3 1.61-5.3 3.57v20.26ZM904.18 1040.71v-20.26c0-2-2.38-3.57-5.29-3.57s-5.3 1.61-5.3 3.57v20.26ZM921.69 1040.71v-20.26c0-2-2.38-3.57-5.3-3.57s-5.29 1.61-5.29 3.57v20.26ZM886.67 1092.9v-20.26c0-2-2.38-3.57-5.29-3.57s-5.3 1.61-5.3 3.57v20.26ZM904.18 1092.9v-20.26c0-2-2.38-3.57-5.29-3.57s-5.3 1.61-5.3 3.57v20.26ZM921.69 1092.9v-20.26c0-2-2.38-3.57-5.3-3.57s-5.29 1.61-5.29 3.57v20.26Z"/><path fill="#c9a55d" d="M915.41 852.92v-9.62h-9.34l-7.26-20.94L892 843.3h-9.32v9.62c-9.13 3.73-15.87 10.49-18 18.54h68.67c-2.07-8.05-8.81-14.81-17.94-18.54Z"/><path fill="#dab971" d="M898.41 871.46h35c-2.11-8.05-8.85-14.81-18-18.54v-9.62h-9.34l-7.26-20.94-.4 1.22Z"/><path fill="#b7924f" d="M932.25 844.6h29.45v281.83h-29.45z"/><path fill="#b7924f" d="M925.32 831.03h43.32v17.33h-43.32z"/><path fill="#b7924f" d="m961 832.47-12.46-47.73a7.19 7.19 0 0 0-.08-13.94v-22.08a2.17 2.17 0 1 0-4.33 0v22.34a7.19 7.19 0 0 0 .77 13.68L933 832.47Z"/><path fill="#9b773e" d="m925.32 831.03 17.13 16.36v279.17h-10.2V848.38l-6.93-.03v-17.32zM932.82 831.03h14.44l-.72-46.45-1.64.16-12.08 46.29z"/><path fill="#dab971" d="M995.07 870.53h35.5v257.34h-35.5z" transform="rotate(180 1012.815 999.2)"/><path fill="#442f2c" d="M983.53 937.35V917.1c0-2-2.38-3.57-5.29-3.57s-5.3 1.61-5.3 3.57v20.25ZM1001 937.35V917.1c0-2-2.38-3.57-5.29-3.57s-5.3 1.61-5.3 3.57v20.25ZM1018.55 937.35V917.1c0-2-2.38-3.57-5.29-3.57s-5.3 1.61-5.3 3.57v20.25ZM983.53 989.54v-20.25c0-2-2.38-3.57-5.29-3.57s-5.3 1.6-5.3 3.57v20.25ZM1001 989.54v-20.25c0-2-2.38-3.57-5.29-3.57s-5.3 1.6-5.3 3.57v20.25ZM1018.55 989.54v-20.25c0-2-2.38-3.57-5.29-3.57s-5.3 1.6-5.3 3.57v20.25ZM983.53 1040.71v-20.26c0-2-2.38-3.57-5.29-3.57s-5.3 1.61-5.3 3.57v20.26ZM1001 1040.71v-20.26c0-2-2.38-3.57-5.29-3.57s-5.3 1.61-5.3 3.57v20.26ZM1018.55 1040.71v-20.26c0-2-2.38-3.57-5.29-3.57s-5.3 1.61-5.3 3.57v20.26ZM983.53 1092.9v-20.26c0-2-2.38-3.57-5.29-3.57s-5.3 1.61-5.3 3.57v20.26ZM1001 1092.9v-20.26c0-2-2.38-3.57-5.29-3.57s-5.3 1.61-5.3 3.57v20.26ZM1018.55 1092.9v-20.26c0-2-2.38-3.57-5.29-3.57s-5.3 1.61-5.3 3.57v20.26Z"/><path fill="#c9a55d" d="M1012.27 852.92v-9.62h-9.34l-7.26-20.94-6.77 20.94h-9.33v9.62c-9.13 3.73-15.87 10.49-18 18.54h68.67c-2.1-8.05-8.84-14.81-17.97-18.54Z"/><path fill="#dab971" d="M995.28 871.46h35c-2.12-8.05-8.86-14.81-18-18.54v-9.62h-9.34l-7.26-20.94-.39 1.22Z"/><path fill="#b7924f" d="M1029.12 844.6h29.45v281.83h-29.45z"/><path fill="#b7924f" d="M1022.18 831.03h43.32v17.33h-43.32z"/><path fill="#b7924f" d="m1057.86 832.47-12.45-47.73a7.19 7.19 0 0 0-.08-13.94v-22.08a2.17 2.17 0 1 0-4.34 0v22.34a7.19 7.19 0 0 0 .77 13.68l-11.93 47.73Z"/><path fill="#9b773e" d="m1022.18 831.03 17.13 16.36v279.17h-10.19V848.38l-6.94-.03v-17.32zM1029.68 831.03h14.44l-.72-46.45-1.64.16-12.08 46.29z"/><path fill="#dab971" d="M1091.93 870.53h35.5v257.34h-35.5z" transform="rotate(180 1109.68 999.2)"/><path fill="#442f2c" d="M1080.4 937.35V917.1c0-2-2.39-3.57-5.3-3.57s-5.29 1.61-5.29 3.57v20.25ZM1097.91 937.35V917.1c0-2-2.39-3.57-5.3-3.57s-5.29 1.61-5.29 3.57v20.25ZM1115.41 937.35V917.1c0-2-2.38-3.57-5.29-3.57s-5.29 1.61-5.29 3.57v20.25ZM1080.4 989.54v-20.25c0-2-2.39-3.57-5.3-3.57s-5.29 1.6-5.29 3.57v20.25ZM1097.91 989.54v-20.25c0-2-2.39-3.57-5.3-3.57s-5.29 1.6-5.29 3.57v20.25ZM1115.41 989.54v-20.25c0-2-2.38-3.57-5.29-3.57s-5.29 1.6-5.29 3.57v20.25ZM1080.4 1040.71v-20.26c0-2-2.39-3.57-5.3-3.57s-5.29 1.61-5.29 3.57v20.26ZM1097.91 1040.71v-20.26c0-2-2.39-3.57-5.3-3.57s-5.29 1.61-5.29 3.57v20.26ZM1115.41 1040.71v-20.26c0-2-2.38-3.57-5.29-3.57s-5.29 1.61-5.29 3.57v20.26ZM1080.4 1092.9v-20.26c0-2-2.39-3.57-5.3-3.57s-5.29 1.61-5.29 3.57v20.26ZM1097.91 1092.9v-20.26c0-2-2.39-3.57-5.3-3.57s-5.29 1.61-5.29 3.57v20.26ZM1115.41 1092.9v-20.26c0-2-2.38-3.57-5.29-3.57s-5.29 1.61-5.29 3.57v20.26Z"/><path fill="#c9a55d" d="M1109.14 852.92v-9.62h-9.35l-7.26-20.94-6.77 20.94h-9.33v9.62c-9.13 3.73-15.87 10.49-18 18.54h68.67c-2.1-8.05-8.84-14.81-17.96-18.54Z"/><path fill="#dab971" d="M1092.14 871.46h35c-2.12-8.05-8.86-14.81-18-18.54v-9.62h-9.35l-7.26-20.94-.39 1.22Z"/><path fill="#a8d354" d="M71.07 1122.01h1057.8v43.71H71.07z"/><path fill="#c2e880" d="m71.07 1165.82 1057.8-43.88-1057.79-.27-.01 44.15z"/><path fill="#894106" d="M71.12 1163.07h1057.81v10.19H71.12z"/><path fill="#527a13" d="M717.88 1163.14a50.64 50.64 0 0 0-49.38-39.45c-1.35 0-2.68.07-4 .17a23.42 23.42 0 0 0-40.83-18.79 83.11 83.11 0 0 0-112.19 4.21 19.71 19.71 0 0 0-32.58 14.94v.43a51.12 51.12 0 0 0-9.8-1 50.57 50.57 0 0 0-41.89 22.18 29.24 29.24 0 0 0-40.71 17.27Z"/><path fill="#894106" d="M305.14 1097.4h6.95v23.64h-6.95z"/><path fill="#40660a" d="M328.89 1102.82h-39.64l14.78-136.3h8.59l16.27 136.3z"/><path fill="#527a13" d="M308.72 1102.82h20.17l-16.27-136.3h-3.9v136.3z"/><path fill="#304c05" d="M311.09 1039.54h6.85v6.03h-6.85zM299.5 1014.04h6.85v4.17h-6.85zM302.28 1064.57h6.85v6.03h-6.85zM317.58 1084.04h6.85v6.03h-6.85zM294.86 1086.36h6.85v6.03h-6.85zM307.38 986.22h6.85v4.17h-6.85z"/><path fill="#894106" d="M338.25 1092.86h8.29v28.18h-8.29z"/><path fill="#40660a" d="M366.56 1102.77h-47.25l17.62-165.92h10.24l19.39 165.92z"/><path fill="#527a13" d="M342.52 1102.77h24.04l-19.39-165.92h-4.65v165.92z"/><path fill="#304c05" d="M346 1023.88h6.85v7.18H346zM332.19 993.49h6.85v4.97h-6.85zM335.5 1053.73h6.85v7.18h-6.85zM353.74 1076.94h6.85v7.18h-6.85zM326.66 1079.7h6.85v7.18h-6.85zM341.58 960.33h6.85v4.97h-6.85z"/><path fill="#894106" d="M413.09 1098.63h8.94v22.55h-8.94z"/><path fill="#527a13" d="m449.12 1101.25-7-131.28c0-15.93-8.68-36-24.61-36s-24.6 20-24.59 36l-7 131.28Z"/><path fill="#40660a" d="M417.5 934c-15.93 0-24.6 20-24.59 36l-7 131.28h31.59Z"/><path fill="#304c05" d="M426.98 1003.87h7.4v7.75h-7.4zM400.97 969.23h7.4v5.37h-7.4zM401.48 1028.68h7.4v7.75h-7.4zM398.72 1072.11h7.4v7.75h-7.4zM398.01 998.32h7.4v7.75h-7.4zM433.04 1088.79h7.4v5.37h-7.4zM424.29 1052.09h7.4v7.75h-7.4zM427.05 963.01h7.4v7.75h-7.4z"/><path fill="#894106" d="M129.89 1131.18h13.33v33.61h-13.33z"/><path fill="#527a13" d="m183.59 1135.09-10.46-195.66c0-23.74-12.93-53.58-36.67-53.58s-36.66 29.85-36.65 53.6l-10.38 195.66Z"/><path fill="#40660a" d="M136.46 885.85c-23.75 0-36.66 29.85-36.65 53.6l-10.38 195.66h47.08Z"/><path fill="#304c05" d="M150.59 989.94h11.02v11.55h-11.02zM111.82 938.32h11.02v8h-11.02zM112.58 1026.92h11.02v11.55h-11.02zM108.48 1091.66h11.02v11.55h-11.02zM107.41 981.69h11.02v11.55h-11.02zM159.63 1116.51h11.02v8h-11.02zM146.58 1061.82h11.02v11.55h-11.02zM150.7 929.06h11.02v11.55H150.7z"/><path fill="#894106" d="M1029.48 1090.3h9.02v22.74h-9.02z"/><path fill="#527a13" d="m1065.81 1092.94-7.07-132.37c0-16.07-8.75-36.25-24.81-36.25s-24.81 20.19-24.8 36.26l-7 132.38Z"/><path fill="#40660a" d="M1033.93 924.32c-16.07 0-24.81 20.19-24.8 36.26l-7 132.38H1034Z"/><path fill="#304c05" d="M1043.48 994.74h7.46v7.82h-7.46zM1017.26 959.81h7.46v5.41h-7.46zM1017.77 1019.76h7.46v7.82h-7.46zM1015 1063.56h7.46v7.82H1015zM1014.27 989.15h7.46v7.82h-7.46zM1049.6 1080.37h7.46v5.41h-7.46zM1040.77 1043.37h7.46v7.82h-7.46zM1043.56 953.55h7.46v7.82h-7.46z"/><path fill="#894106" d="M949.77 1090.84h7.51v18.93h-7.51z"/><path fill="#527a13" d="m980 1093-5.89-110.22c0-13.37-7.28-30.18-20.66-30.18s-20.65 16.82-20.64 30.19L927 1093.05Z"/><path fill="#40660a" d="M953.47 952.64c-13.37 0-20.65 16.82-20.64 30.19L927 1093.05h26.5Z"/><path fill="#304c05" d="M961.43 1011.28h6.21v6.51h-6.21zM939.59 982.19h6.21v4.51h-6.21zM940.02 1032.11h6.21v6.51h-6.21zM937.71 1068.57h6.21v6.51h-6.21zM937.11 1006.62h6.21v6.51h-6.21zM966.52 1082.57h6.21v4.51h-6.21zM959.17 1051.76h6.21v6.51h-6.21zM961.49 976.98h6.21v6.51h-6.21z"/><path fill="#92b737" d="M1035.46 1121.75a16.59 16.59 0 0 0-16.17-12.91c-.44 0-.88 0-1.31.05a7.9 7.9 0 0 0 .09-1.1 7.68 7.68 0 0 0-13.46-5 27.21 27.21 0 0 0-36.73 1.38 6.45 6.45 0 0 0-10.67 4.89s0 .09 0 .14a17 17 0 0 0-3.21-.31 16.56 16.56 0 0 0-13.71 7.26 9.57 9.57 0 0 0-13.33 5.65Z"/><path fill="#527a13" d="M1113 1121.75a16.58 16.58 0 0 0-16.17-12.91c-.44 0-.88 0-1.31.05a7.9 7.9 0 0 0 .09-1.1 7.68 7.68 0 0 0-13.46-5 27.21 27.21 0 0 0-36.73 1.38 6.45 6.45 0 0 0-10.67 4.89s0 .09 0 .14a17 17 0 0 0-3.21-.31 16.56 16.56 0 0 0-13.71 7.26 9.57 9.57 0 0 0-13.33 5.65Z"/><path fill="#97dfff" d="M1095.88 576.34a27.71 27.71 0 0 0-45.78-14.21 39.4 39.4 0 0 0-68.77 1.87 21.17 21.17 0 0 0-31.23 11.62ZM832 699.23a16.54 16.54 0 0 0-27.32-8.48 23.51 23.51 0 0 0-41 1.13 12.64 12.64 0 0 0-18.68 6.94ZM356.86 593.62a43.21 43.21 0 0 0-71.36-22.16 61.42 61.42 0 0 0-107.19 3 33 33 0 0 0-48.67 18.13ZM447.29 757.62a25.78 25.78 0 0 0-42.59-13.22 36.65 36.65 0 0 0-64 1.77A19.69 19.69 0 0 0 311.68 757ZM176.06 818.84a16.55 16.55 0 0 0-27.32-8.48 23.51 23.51 0 0 0-41 1.14 12.63 12.63 0 0 0-18.63 6.94Z"/></svg>